<?xml version="1.0" encoding="UTF-8"?>
<svg id="Capa_2" data-name="Capa 2" xmlns="http://www.w3.org/2000/svg" viewBox="0 0 173.41 207.96">
  <defs>
    <style>
      .cls-1 {
        fill: #000000;
      }
    </style>
  </defs>
  <g id="Compo">
    <g>
      <path class="cls-1" d="M131.15,151.14c1.05,0,2.06.03,3.02.09h-6.15c1.09-.06,2.13-.09,3.13-.09Z"/>
      <path class="cls-1" d="M150.68,101.29v45.15c0,.75-.77,1.25-1.46.95-3.02-1.34-7.09-2.61-12.33-3.17-.78-.08-1.53-.15-2.27-.19-1.13-.07-2.3-.11-3.47-.11s-2.36.04-3.56.11c-2.83.16-5.75.52-8.77,1.08-.63.12-1.22-.37-1.22-1.02v-9.72c0-.57-.46-1.04-1.04-1.04h-33.85c-.57,0-1.04-.46-1.04-1.04v-9.32c0-12.55,10.17-22.72,22.72-22.72h45.25c.57,0,1.04.46,1.04,1.04Z"/>
      <path class="cls-1" d="M148.9,155.36c-.91-.56-2.12-1.19-3.67-1.81,0,0-.02,0-.02-.01h0c-2.28-.9-5.29-1.74-9.09-2.15-.63-.07-1.28-.12-1.95-.17-.96-.06-1.97-.09-3.02-.09s-2.04.03-3.13.09c-6.66.39-14.92,2.04-24.97,5.93-8.92,3.45-16.77,4.73-23.5,4.73-15.47,0-25.01-6.73-28.05-9.26-.7-.58-1.05-.94-1.05-.94-10.41-9.61-16.61-23.27-16.61-39.71,0-23.84,13.01-41.69,32.98-49.92.04-.02.09-.03.13-.03.19,0,.35.16.35.35,0,.12-.06.22-.15.28,0,0-.02.01-.03.02-2.69,1.67-5.01,3.45-7.01,5.31-3.11,3.26-5.76,7.04-7.76,10.48-6.92,14.63-.99,30.47,1.65,36.2.32.68,1.32.56,1.47-.18,1.02-5.16,4.84-17.42,18.59-25.01.46-.25.96.25.7.7-.27.5-.54,1-.78,1.51-1.64,3.38-2.67,7.06-3.02,10.8-.08.83,1.03,1.18,1.45.47,5.18-8.94,12.77-17.26,22.64-19.52,2.02-.46,3.67-.33,5.45-.33,5.01,0,10.2.62,15.55,1.55,4.38.75,9.85,1.72,14.82,1.72,1.16,0,2.3-.05,3.39-.17,1.13-.13,2.24-.4,3.31-.82,1.4-.55,2.64-1.11,3.73-1.69,2.21-1.17,3.84-2.37,5.02-3.54.23-.76-.09-1.59-.37-2.11-.17-.32-.5-.53-.87-.56l-2.16-.2c-.71-.06-1.32-.53-1.55-1.21-.38-1.11-.81-2.71-.38-3.27.74-.97,4.74-.75,6.28-.62h.01c.13,0,.24-.11.24-.24,0-.1-.06-.19-.15-.22,0,0,0,0,0,0-5.52-2.37-10.03-5.42-14.71-8.74-.96-.68-1.83-1.38-2.63-2.12-1.26-1.17-2.33-2.44-3.24-3.86-.95-1.47-1.71-3.1-2.34-4.96-1.78-5.24-5.04-10.13-9.2-14.09-5.32-5.06-12.1-8.58-19.11-9.33-.51-.05-.92.38-.85.89.15,1.02.3,1.77.18,2.81-.04.35-.4.56-.73.42-1.05-.45-2.05-1.2-2.41-2.19-.54-1.51-1.1-3.04-1.71-4.58-3.73-9.45-8.85-19.19-16.23-25.8-.31-.28-.79-.25-1.08.05-2.51,2.59-4.1,5.44-5.95,8.41-4.25,6.87-7.75,14.64-8.07,22.36-.19,4.47.67,8.92,3.08,13.17.26.46-.24.98-.7.72-4.14-2.37-6.45-6.42-7.94-11.02-.14-.43-.61-.65-1.03-.48-2.73,1.11-5.39,2.34-7.96,3.69C17.35,51.4,0,78.51,0,111.98c0,29,12.69,53.07,33.62,68.35,0,0,.23.17.66.48.18.12.34.25.52.36.22.16.43.31.65.45.02.01.04.02.06.04.45.3.96.64,1.55,1.01,6.83,4.51,14.46,8.12,22.73,10.72.06.02.12.04.19.06,10.69,3.65,24.35,6.63,40.44,6.63.33,0,.65,0,.98,0h.01c.3,0,7.45-.02,19.36-1.87,4.38-.68,12.88-2.57,15.36-2.95,1-.19,2.05-.28,3.14-.28,3.61,0,7.64,1,11.61,2.46.6.22,1.2-.33,1.02-.95-1.69-5.7-5.06-9.5-9.18-13.22-.42-.38,0-1.07.53-.87,11.35,4.4,22.35,14.99,28.3,25.21h0c.11.2.32.34.57.34.31,0,.58-.22.64-.52,0-.02,0-.04.01-.06,1.18-7.62,3.75-37.17-23.85-52.02ZM115.87,57.01l3.62,4.49c.26.33.05.82-.37.84-.35.02-.69.03-1.03.03-5.67,0-9.79-2.64-14.42-5.37-1.56-.92-3.18-1.85-4.93-2.69-.42-.2-.38-.82.07-.96,2.02-.64,4.05-.96,6.04-.96,2.5,0,4.92.51,7.14,1.55,1.51.71,2.83,1.77,3.89,3.06ZM73.91,8.57c.22-.29.68-.26.86.06,3.33,5.86,5.43,11.71,7.06,17.83.57,2.16,1.09,4.36,1.58,6.6.1.45-.4.79-.79.55-1.9-1.19-2.99-2.53-5.53-3.45-.48-.17-.99.16-1.04.66-.41,4.15.19,8.27,1.39,12.32.11.38-.23.75-.61.65-5.62-1.39-9.12-6.26-9.76-11.92-.11-.99-.18-1.98-.19-2.98-.09-7.21,2.47-14.42,7.02-20.32Z"/>
    </g>
  </g>
</svg>